<svg id="75fafcbe-5e8b-4439-8eb3-021296a13361" data-name="Simbol." xmlns="http://www.w3.org/2000/svg" viewBox="0 0 90 49.16"><title>Artboard 1</title><g id="45df2d18-3102-420b-afff-e74db2cb1caf" data-name="III"><g id="11bdba5a-8fa1-4645-83a6-7a480ffac223" data-name="Vs.1 copy"><path d="M11.79,12.91h6.08A11.29,11.29,0,0,1,29.16,24.21V53.45a0,0,0,0,1,0,0H23.08A11.29,11.29,0,0,1,11.79,42.16V12.91a0,0,0,0,1,0,0Z" transform="translate(-17.47 24.2) rotate(-45)" style="fill:#fbed21"/><path d="M39.56,13.1h6.08a0,0,0,0,1,0,0V42.34A11.29,11.29,0,0,1,34.35,53.63H28.27a0,0,0,0,1,0,0V24.39A11.29,11.29,0,0,1,39.56,13.1Z" transform="translate(39.49 83.09) rotate(-135)" style="fill:#2a2665"/><circle cx="28.67" cy="8.69" r="8.69" style="fill:#272167"/><g id="d8bfa101-eda8-43b6-b149-33a827cd5e7c" data-name="Layer 10 copy 2"><path d="M72.13,12.91h6.08a0,0,0,0,1,0,0V42.16A11.29,11.29,0,0,1,66.92,53.45H60.84a0,0,0,0,1,0,0V24.21A11.29,11.29,0,0,1,72.13,12.91Z" transform="translate(95.22 105.81) rotate(-135)" style="fill:#006837"/></g></g></g></svg>