<svg id="1514cd6e-d940-4c59-b450-36dcdf624265" data-name="Simbol." xmlns="http://www.w3.org/2000/svg" viewBox="0 0 2256.85 536"><title>Artboard 2</title><g id="03e6e03f-b753-439b-b4f9-6b026ffe735e" data-name="III"><g id="050d74e2-04b8-4887-9108-6f5f34e5271b" data-name="Vs.2 copy"><g id="c056ce4a-5ddd-459e-a7d0-a9e8b970ea84" data-name="W copy"><path d="M128.21,140.46h66.13A122.82,122.82,0,0,1,317.16,263.28V581.35a0,0,0,0,1,0,0H251A122.82,122.82,0,0,1,128.21,458.53V140.46A0,0,0,0,1,128.21,140.46Z" transform="translate(-189.97 263.17) rotate(-45)"/><path d="M429.27,140.46h66.13a0,0,0,0,1,0,0V458.53A122.82,122.82,0,0,1,372.59,581.35H306.45a0,0,0,0,1,0,0V263.28A122.82,122.82,0,0,1,429.27,140.46Z" transform="translate(429.24 899.6) rotate(-135)"/><circle cx="311.81" cy="94.48" r="94.48"/><g id="4369113b-8516-4c79-8f5e-0af1ec2b6189" data-name="Layer 10 copy 2"><path d="M784.51,140.46h66.13a0,0,0,0,1,0,0V458.53A122.82,122.82,0,0,1,727.82,581.35H661.69a0,0,0,0,1,0,0V263.28A122.82,122.82,0,0,1,784.51,140.46Z" transform="translate(1035.66 1150.79) rotate(-135)"/></g></g><path d="M1214.52,362.66q-8.48,29.2-18.24,56.92-7,19.83-13.88,38.05a22,22,0,0,1-20.58,14.22h-7.51a22,22,0,0,1-20-12.92q-4.6-10.19-9.47-21.93-8.13-19.58-16.26-41.82t-16.25-46.79q-8.13-24.56-15.88-50.12h30a22,22,0,0,1,21.29,16.45q1.73,6.58,3.65,13.59,4.45,16.1,9.27,32.86t10,32.69q5.19,15.93,10.38,29.2,5.54-15.26,10.9-31.53T1182.11,359q4.82-16.26,9.06-31.7,1.78-6.46,3.4-12.62a22,22,0,0,1,21.28-16.42h0a22,22,0,0,1,21.32,16.55q1.56,6.09,3.23,12.49,4,15.44,8.64,31.7t9.94,32.52q5.32,16.28,10.85,31.53,4.82-13.26,10-29.2T1290,361.17q5-16.76,9.45-32.86,1.93-7,3.66-13.6a22,22,0,0,1,21.28-16.44h28.95q-7.75,25.56-15.88,50.12t-16.26,46.79Q1313.1,417.42,1305,437q-4.92,11.87-9.71,22.15a22,22,0,0,1-19.94,12.7h-7.41a22,22,0,0,1-20.55-14.14q-7-18.25-14.25-38.13Q1223,391.88,1214.52,362.66Z"/><path d="M1376.22,385.89q0-22.9,7.56-40.16a82.34,82.34,0,0,1,48.87-46,98,98,0,0,1,33.19-5.8q39.83,0,62.13,22.23t22.32,66.38c0,2.22-.07,4.71-.19,7.47s-.31,5.26-.55,7.47H1422.32q1.85,20.91,16.41,32.36T1481,441.32a153,153,0,0,0,29.68-2.66c2.53-.49,4.9-1,7.13-1.52a13.9,13.9,0,0,1,16.81,11.08l3.17,17.66a75.63,75.63,0,0,1-10.14,3.48q-6.46,1.83-14.76,3.32T1495,475.17a187.58,187.58,0,0,1-19.55,1q-25.44,0-44.25-6.81t-31-18.91a76,76,0,0,1-18.07-28.55A105.89,105.89,0,0,1,1376.22,385.89ZM1505.66,368a48,48,0,0,0-2.58-15.77,36.94,36.94,0,0,0-7.56-12.94,35.51,35.51,0,0,0-12.17-8.63,42.53,42.53,0,0,0-17.15-3.15,43.77,43.77,0,0,0-18.07,3.48A40.22,40.22,0,0,0,1426.75,353a64.42,64.42,0,0,0-4.06,14.94Z"/><path d="M1572.78,533.59q-4.8,0-13.46-.83a65.52,65.52,0,0,1-15.3-3.16l3.48-19.39a13.87,13.87,0,0,1,14.67-11.4q3.46.26,7.29.26,15.49,0,21.76-8.13t6.27-24.4V312.17a13.89,13.89,0,0,1,13.89-13.9h30.73V467.21q0,33.85-17.89,50.11T1572.78,533.59Zm74.12-286.1q0,11.3-8.11,17.92a29.33,29.33,0,0,1-19.18,6.64,29.83,29.83,0,0,1-19.54-6.64q-8.11-6.63-8.11-17.92,0-11.61,8.11-18.25a29.83,29.83,0,0,1,19.54-6.64,29.33,29.33,0,0,1,19.18,6.64Q1646.91,235.89,1646.9,247.49Z"/><path d="M1873.33,384.9a102,102,0,0,1-6.64,37.5,81.87,81.87,0,0,1-18.81,28.88,85,85,0,0,1-29.32,18.58,104,104,0,0,1-37.79,6.64,102.51,102.51,0,0,1-37.62-6.64A85.43,85.43,0,0,1,1714,451.28a83.67,83.67,0,0,1-19-28.88,99.2,99.2,0,0,1-6.83-37.5q0-20.58,6.83-37.34a82.64,82.64,0,0,1,19.17-28.71,85.32,85.32,0,0,1,29.32-18.42,103.52,103.52,0,0,1,37.25-6.47,105.14,105.14,0,0,1,37.43,6.47,83,83,0,0,1,29.31,18.42,84.22,84.22,0,0,1,19,28.71Q1873.32,364.32,1873.33,384.9Zm-45.73,0q0-25.89-12.35-41t-34.48-15.1q-22.14,0-34.48,15.1t-12.36,41q0,26.22,12.36,41.48t34.48,15.27q22.13,0,34.48-15.27T1827.6,384.9Z"/><path d="M2093.11,385.23q0,20.91-6.82,37.67a80.56,80.56,0,0,1-19.54,28.71,85.51,85.51,0,0,1-30.8,18.25q-18.08,6.3-40.93,6.31a287.44,287.44,0,0,1-42.23-3q-12.54-1.86-22.42-4a13.89,13.89,0,0,1-10.95-13.59V232.92a13.89,13.89,0,0,1,11.85-13.74L1964,214.3v89.95a112.57,112.57,0,0,1,19-6.64,97,97,0,0,1,24.9-3q20.27,0,36.32,6.47A71,71,0,0,1,2071,319.51a82.64,82.64,0,0,1,16.41,28.71A114.12,114.12,0,0,1,2093.11,385.23Zm-45.72-.67q0-25.55-11.25-40.49t-35.59-14.93a70.92,70.92,0,0,0-20.83,3,68.36,68.36,0,0,0-15.68,6.64v88.07a13.71,13.71,0,0,0,12.21,13.64l.15,0a171.4,171.4,0,0,0,18.25.83q24.7,0,38.72-15.1T2047.39,384.56Z"/><path d="M2252.21,320.85A13.89,13.89,0,0,1,2236,331.39l-2.22-.43a125.46,125.46,0,0,0-22.68-1.82,100.1,100.1,0,0,0-15.68,1.32,102.25,102.25,0,0,0-11.61,2.33V471.85H2153.1A13.89,13.89,0,0,1,2139.21,458V306.57a267.11,267.11,0,0,1,32.26-8.13,223.16,223.16,0,0,1,43-3.82q4.42,0,10.32.5t11.8,1.33q5.89.82,11.44,2c3.68.78,6.63,1.49,8.85,2.15Z"/></g></g></svg>