<svg id="45cbae30-5162-44e3-a0b5-1e9478bda757" data-name="Simbol." xmlns="http://www.w3.org/2000/svg" viewBox="0 0 985.22 899.39"><title>Artboard 1</title><g id="11472525-de62-4d7a-ab56-be6100c64c6d" data-name="III"><g id="e5eaae64-39c0-4d2a-a071-452a7e719d14" data-name="Vs.1 copy"><path d="M129,141.37h66.56A123.62,123.62,0,0,1,319.23,265V585.13a0,0,0,0,1,0,0H252.66A123.62,123.62,0,0,1,129,461.51V141.37A0,0,0,0,1,129,141.37Z" transform="translate(-191.21 264.88) rotate(-45)"/><path d="M432.07,141.37h66.56a0,0,0,0,1,0,0V461.51A123.62,123.62,0,0,1,375,585.13H308.45a0,0,0,0,1,0,0V265A123.62,123.62,0,0,1,432.07,141.37Z" transform="translate(432.03 905.45) rotate(-135)"/><circle cx="313.84" cy="95.09" r="95.09"/><g id="bae96b87-55f0-46f7-80cf-6efeb054eed2" data-name="Layer 10 copy 2"><path d="M789.61,141.37h66.56a0,0,0,0,1,0,0V461.51A123.62,123.62,0,0,1,732.56,585.13H666a0,0,0,0,1,0,0V265A123.62,123.62,0,0,1,789.61,141.37Z" transform="translate(1042.4 1158.28) rotate(-135)"/></g><path d="M115.34,756.74q-7.07,24.39-15.22,47.51Q94.29,820.8,88.54,836a18.35,18.35,0,0,1-17.18,11.87H65.09a18.34,18.34,0,0,1-16.72-10.78q-3.85-8.51-7.91-18.3-6.78-16.35-13.57-34.9T13.33,744.83Q6.55,724.34.08,703H25.16a18.35,18.35,0,0,1,17.76,13.73q1.44,5.49,3,11.34,3.72,13.44,7.74,27.42t8.35,27.28q4.32,13.29,8.66,24.37,4.62-12.74,9.1-26.31T88.3,753.7q4-13.58,7.56-26.45,1.48-5.4,2.84-10.54A18.36,18.36,0,0,1,116.46,703h0a18.36,18.36,0,0,1,17.79,13.82q1.29,5.07,2.69,10.42,3.38,12.87,7.22,26.45t8.29,27.14q4.44,13.57,9.05,26.31,4-11.07,8.35-24.37t8.51-27.28q4.17-14,7.88-27.42,1.62-5.85,3.06-11.35A18.36,18.36,0,0,1,207.06,703h24.16q-6.48,21.33-13.26,41.82T204.4,783.89q-6.79,18.55-13.57,34.9-4.11,9.9-8.1,18.48a18.37,18.37,0,0,1-16.65,10.6H159.9a18.36,18.36,0,0,1-17.15-11.8q-5.83-15.24-11.89-31.82Q122.4,781.12,115.34,756.74Z"/><path d="M250.29,776.13q0-19.11,6.31-33.51a68.69,68.69,0,0,1,40.77-38.36,81.66,81.66,0,0,1,27.7-4.85q33.24,0,51.86,18.56t18.62,55.39c0,1.85-.06,3.93-.16,6.23s-.26,4.39-.46,6.24H288.76q1.53,17.45,13.69,27t35.24,9.56a128,128,0,0,0,24.77-2.22c2.11-.41,4.09-.84,6-1.27a11.6,11.6,0,0,1,14,9.25l2.64,14.73a61.85,61.85,0,0,1-8.46,2.91q-5.39,1.53-12.31,2.77t-14.93,2.08a158.86,158.86,0,0,1-16.31.83q-21.22,0-36.93-5.68T270.29,830a63.31,63.31,0,0,1-15.08-23.82A88.36,88.36,0,0,1,250.29,776.13Zm108-15A39.87,39.87,0,0,0,356.15,748a30.67,30.67,0,0,0-6.3-10.8,29.5,29.5,0,0,0-10.16-7.2,35.36,35.36,0,0,0-14.31-2.63,36.58,36.58,0,0,0-15.08,2.9,33.65,33.65,0,0,0-17.85,18.42,53.63,53.63,0,0,0-3.38,12.47Z"/><path d="M414.32,899.39c-2.67,0-6.41-.24-11.23-.7a54.48,54.48,0,0,1-12.77-2.63l2.9-16.18a11.59,11.59,0,0,1,12.25-9.52q2.88.23,6.08.22,12.93,0,18.16-6.78t5.23-20.36V714.61a11.6,11.6,0,0,1,11.6-11.6h25.64V844q0,28.26-14.93,41.82T414.32,899.39Zm61.86-238.75q0,9.4-6.77,15a24.47,24.47,0,0,1-16,5.54,24.89,24.89,0,0,1-16.31-5.54q-6.76-5.54-6.77-15,0-9.71,6.77-15.24a24.94,24.94,0,0,1,16.31-5.54,24.53,24.53,0,0,1,16,5.54Q476.18,651,476.18,660.64Z"/><path d="M665.13,775.3a84.92,84.92,0,0,1-5.54,31.3,68.11,68.11,0,0,1-15.69,24.1,71.11,71.11,0,0,1-24.47,15.51,86.77,86.77,0,0,1-31.54,5.54,85.46,85.46,0,0,1-31.39-5.54,71.51,71.51,0,0,1-24.32-15.51,69.84,69.84,0,0,1-15.84-24.1,82.94,82.94,0,0,1-5.7-31.3,81.92,81.92,0,0,1,5.7-31.16,69,69,0,0,1,16-24,71.4,71.4,0,0,1,24.46-15.37,86.57,86.57,0,0,1,31.09-5.4,87.77,87.77,0,0,1,31.23,5.4,69.5,69.5,0,0,1,24.47,15.37,70.37,70.37,0,0,1,15.85,24A82.11,82.11,0,0,1,665.13,775.3Zm-38.16,0q0-21.6-10.31-34.2t-28.77-12.61q-18.46,0-28.78,12.61T548.8,775.3q0,21.88,10.31,34.62t28.78,12.74q18.47,0,28.77-12.74T627,775.3Z"/><path d="M848.55,775.58a82.68,82.68,0,0,1-5.7,31.44,67,67,0,0,1-16.31,24,71.21,71.21,0,0,1-25.69,15.24q-15.09,5.25-34.16,5.26A239.92,239.92,0,0,1,731.45,849q-10.47-1.56-18.71-3.33a11.57,11.57,0,0,1-9.14-11.33V648.48A11.59,11.59,0,0,1,713.49,637l27.35-4.07V708a93.84,93.84,0,0,1,15.84-5.54A81,81,0,0,1,777.46,700q16.92,0,30.31,5.4a59,59,0,0,1,22.31,15.37,68.8,68.8,0,0,1,13.7,24A95.17,95.17,0,0,1,848.55,775.58ZM810.39,775q0-21.33-9.39-33.8t-29.7-12.46a59.29,59.29,0,0,0-17.39,2.49,56.88,56.88,0,0,0-13.07,5.54v73.49A11.44,11.44,0,0,0,751,821.68h.12a140.33,140.33,0,0,0,15.24.7q20.61,0,32.31-12.6T810.39,775Z"/><path d="M981.32,721.85a11.59,11.59,0,0,1-13.51,8.8l-1.86-.36A104.67,104.67,0,0,0,947,728.77,82.66,82.66,0,0,0,934,729.88a85.15,85.15,0,0,0-9.7,1.94v116H898.61a11.6,11.6,0,0,1-11.6-11.6V709.94a223.93,223.93,0,0,1,26.93-6.79A186.15,186.15,0,0,1,949.79,700c2.47,0,5.34.13,8.62.41s6.56.65,9.85,1.11,6.46,1,9.54,1.66,5.54,1.25,7.39,1.8Z"/></g></g></svg>